<svg width="32" height="32" viewBox="0 0 32 32" fill="none" xmlns="http://www.w3.org/2000/svg">
  <defs>
    <linearGradient id="gradient" x1="0%" y1="0%" x2="100%" y2="0%">
      <stop offset="0%" stop-color="#2563EB" />
      <stop offset="100%" stop-color="#7C3AED" />
    </linearGradient>
  </defs>
  <rect width="32" height="32" fill="url(#gradient)" rx="4"/>
  <g fill="white">
    <path d="M10 16 L18 12 L14 20 L10 16 Z" fill="white"/>
    <path d="M14 20 L18 12 L22 18 L14 20 Z" fill="white"/>
    <line x1="16" y1="10" x2="16" y2="8" stroke="white" strokeWidth="2" opacity="0.8"/>
    <line x1="18" y1="11" x2="19.5" y2="9.5" stroke="white" strokeWidth="2" opacity="0.6"/>
    <line x1="20" y1="14" x2="22" y2="12" stroke="white" strokeWidth="2" opacity="0.4"/>
    <line x1="20" y1="18" x2="22" y2="20" stroke="white" strokeWidth="2" opacity="0.4"/>
    <line x1="18" y1="21" x2="19.5" y2="22.5" stroke="white" strokeWidth="2" opacity="0.6"/>
    <line x1="16" y1="22" x2="16" y2="24" stroke="white" strokeWidth="2" opacity="0.8"/>
    <line x1="14" y1="21" x2="12.5" y2="22.5" stroke="white" strokeWidth="2" opacity="0.6"/>
    <line x1="12" y1="18" x2="10" y2="20" stroke="white" strokeWidth="2" opacity="0.4"/>
    <line x1="12" y1="14" x2="10" y2="12" stroke="white" strokeWidth="2" opacity="0.4"/>
    <line x1="14" y1="11" x2="12.5" y2="9.5" stroke="white" strokeWidth="2" opacity="0.6"/>
  </g>
</svg>