<svg width="32" height="32" viewBox="0 0 32 32" fill="none" xmlns="http://www.w3.org/2000/svg">
  <defs>
    <linearGradient id="gradient" x1="0%" y1="0%" x2="100%" y2="100%">
      <stop offset="0%" stop-color="#6366F1" />
      <stop offset="100%" stop-color="#1E40AF" />
    </linearGradient>
    <filter id="glow">
      <feGaussianBlur stdDeviation="1" result="coloredBlur"/>
      <feMerge> 
        <feMergeNode in="coloredBlur"/>
        <feMergeNode in="SourceGraphic"/>
      </feMerge>
    </filter>
  </defs>
  <rect width="32" height="32" fill="url(#gradient)" rx="16"/>
  
  <!-- Circle border with subtle shadow -->
  <circle cx="16" cy="16" r="13.5" fill="none" stroke="white" stroke-width="2.5" filter="url(#glow)"/>
  
  <!-- Paper airplane with enhanced details -->
  <g fill="white" stroke="white" stroke-width="1" stroke-linejoin="round">
    <!-- Main body -->
    <path d="M11.5 17.5 L19.5 10.5 L15 22.5 L11.5 17.5 Z"/>
    <!-- Wing -->
    <path d="M15 22.5 L19.5 10.5 L24.5 15.5 L15 22.5 Z"/>
    <!-- Nose detail -->
    <path d="M19.5 10.5 L21 12 L19.5 13.5 L18 12 Z"/>
  </g>
  
  <!-- Speed lines with varying opacity and length -->
  <g stroke="white" stroke-linecap="round">
    <line x1="7" y1="13.5" x2="10.5" y2="13.5" stroke-width="1.8" opacity="0.9"/>
    <line x1="7" y1="16.5" x2="10" y2="16.5" stroke-width="1.6" opacity="0.7"/>
    <line x1="7" y1="19.5" x2="9.5" y2="19.5" stroke-width="1.4" opacity="0.5"/>
  </g>
  
  <!-- Enhanced four-pointed star -->
  <g fill="white" opacity="0.95">
    <path d="M9.5 8.5 L10 10 L11.5 10.5 L10 11 L9.5 12.5 L9 11 L7.5 10.5 L9 10 Z"/>
    <!-- Star center dot -->
    <circle cx="9.5" cy="10.5" r="0.8"/>
  </g>
  
  <!-- Subtle inner glow effect -->
  <circle cx="16" cy="16" r="12" fill="none" stroke="white" stroke-width="0.5" opacity="0.3"/>
</svg>