<svg width="32" height="32" viewBox="0 0 32 32" fill="none" xmlns="http://www.w3.org/2000/svg">
  <defs>
    <linearGradient id="gradient" x1="0%" y1="0%" x2="100%" y2="100%">
      <stop offset="0%" stop-color="#6366F1" />
      <stop offset="100%" stop-color="#1E40AF" />
    </linearGradient>
    <linearGradient id="airplaneGradient" x1="0%" y1="0%" x2="100%" y2="100%">
      <stop offset="0%" stop-color="#FFFFFF" />
      <stop offset="100%" stop-color="#F8FAFC" />
    </linearGradient>
  </defs>
  <rect width="32" height="32" fill="url(#gradient)" rx="16"/>
  
  <!-- Light circle border -->
  <circle cx="16" cy="16" r="14" fill="none" stroke="white" stroke-width="1" opacity="0.8"/>
  
  <!-- Email-style paper airplane (keeping original angle and size) -->
  <g fill="url(#airplaneGradient)" stroke="white" stroke-width="0.8" stroke-linejoin="round">
    <!-- Main body (envelope-like) -->
    <path d="M12 18 L19 11 L15 22 L12 18 Z"/>
    <!-- Wing (envelope flap) -->
    <path d="M15 22 L19 11 L23 16 L15 22 Z"/>
    <!-- Envelope flap -->
    <path d="M19 11 L23 16 L19 16 L19 11 Z" fill="white" opacity="0.8"/>
    <!-- Wing fold lines -->
    <path d="M12 18 L15 22" stroke-width="0.5" fill="none" opacity="0.7"/>
    <path d="M19 11 L15 22" stroke-width="0.5" fill="none" opacity="0.7"/>
    <path d="M19 11 L23 16" stroke-width="0.5" fill="none" opacity="0.7"/>
    <!-- Body center line -->
    <line x1="15.5" y1="16.5" x2="15.5" y2="22" stroke="white" stroke-width="0.4" opacity="0.6"/>
    <!-- Wing details -->
    <line x1="17" y1="13" x2="17" y2="18" stroke="white" stroke-width="0.3" opacity="0.5"/>
    <line x1="21" y1="13" x2="21" y2="16" stroke="white" stroke-width="0.3" opacity="0.5"/>
    <!-- Wing tips -->
    <path d="M12 18 L13 19" stroke-width="0.4" fill="none" opacity="0.8"/>
    <path d="M23 16 L22 17" stroke-width="0.4" fill="none" opacity="0.8"/>
    <!-- @ symbol -->
    <circle cx="17" cy="16" r="0.8" fill="none" stroke="white" stroke-width="0.3" opacity="0.7"/>
    <path d="M16.5 15.5 L17.5 15.5 L17.5 16.5 L16.5 16.5 Z" fill="white" opacity="0.7"/>
  </g>
  
  <!-- Speed lines with rich details -->
  <g stroke="white" stroke-linecap="round">
    <line x1="8" y1="13" x2="11" y2="13" stroke-width="1.2" opacity="0.8"/>
    <line x1="8" y1="16" x2="10.5" y2="16" stroke-width="1" opacity="0.6"/>
    <line x1="8" y1="19" x2="10" y2="19" stroke-width="0.8" opacity="0.4"/>
    <!-- Speed line highlights -->
    <line x1="8.5" y1="13" x2="10.5" y2="13" stroke-width="0.6" opacity="0.9"/>
    <line x1="8.5" y1="16" x2="10" y2="16" stroke-width="0.5" opacity="0.7"/>
  </g>
  
  <!-- Rich four-pointed star -->
  <g fill="white" opacity="0.9">
    <path d="M9.5 8.5 L10 9.5 L11 10 L10 10.5 L9.5 11.5 L9 10.5 L8 10 L9 9.5 Z"/>
    <!-- Star center highlight -->
    <circle cx="9.5" cy="10" r="0.3" fill="white" opacity="0.7"/>
    <!-- Star sparkle effect -->
    <circle cx="9.5" cy="10" r="0.1" fill="white" opacity="1"/>
    <!-- Star rays -->
    <line x1="9.5" y1="8" x2="9.5" y2="8.5" stroke="white" stroke-width="0.3" opacity="0.6"/>
    <line x1="9.5" y1="11.5" x2="9.5" y2="12" stroke="white" stroke-width="0.3" opacity="0.6"/>
    <line x1="8" y1="10" x2="7.5" y2="10" stroke="white" stroke-width="0.3" opacity="0.6"/>
    <line x1="11" y1="10" x2="11.5" y2="10" stroke="white" stroke-width="0.3" opacity="0.6"/>
  </g>
  
  <!-- Subtle background elements -->
  <circle cx="16" cy="16" r="11" fill="none" stroke="white" stroke-width="0.3" opacity="0.1"/>
</svg>