<svg width="40" height="40" viewBox="0 0 40 40" fill="none" xmlns="http://www.w3.org/2000/svg">
  <defs>
    <linearGradient id="gradient" x1="0%" y1="0%" x2="100%" y2="100%">
      <stop offset="0%" stop-color="#6366F1" />
      <stop offset="100%" stop-color="#1E40AF" />
    </linearGradient>
    <linearGradient id="airplaneGradient" x1="0%" y1="0%" x2="100%" y2="100%">
      <stop offset="0%" stop-color="#FFFFFF" />
      <stop offset="100%" stop-color="#F8FAFC" />
    </linearGradient>
  </defs>
  <rect width="40" height="40" fill="url(#gradient)" rx="20"/>
  
  <!-- Light circle border -->
  <circle cx="20" cy="20" r="17.5" fill="none" stroke="white" stroke-width="1.5" opacity="0.8"/>
  
  <!-- Email-style paper airplane (keeping original angle and size) -->
  <g fill="url(#airplaneGradient)" stroke="white" stroke-width="1" stroke-linejoin="round">
    <!-- Main body (envelope-like) -->
    <path d="M15 22 L24 13 L19 28 L15 22 Z"/>
    <!-- Wing (envelope flap) -->
    <path d="M19 28 L24 13 L29 20 L19 28 Z"/>
    <!-- Envelope flap -->
    <path d="M24 13 L29 20 L24 20 L24 13 Z" fill="white" opacity="0.8"/>
    <!-- Wing fold lines -->
    <path d="M15 22 L19 28" stroke-width="0.6" fill="none" opacity="0.7"/>
    <path d="M24 13 L19 28" stroke-width="0.6" fill="none" opacity="0.7"/>
    <path d="M24 13 L29 20" stroke-width="0.6" fill="none" opacity="0.7"/>
    <!-- Body center line -->
    <line x1="19" y1="22" x2="19" y2="28" stroke="white" stroke-width="0.4" opacity="0.6"/>
    <!-- Wing details -->
    <line x1="21" y1="16" x2="21" y2="22" stroke="white" stroke-width="0.4" opacity="0.5"/>
    <line x1="26" y1="16" x2="26" y2="20" stroke="white" stroke-width="0.4" opacity="0.5"/>
    <!-- Wing tips -->
    <path d="M15 22 L16 23" stroke-width="0.5" fill="none" opacity="0.8"/>
    <path d="M29 20 L28 21" stroke-width="0.5" fill="none" opacity="0.8"/>
    <!-- Wing tip highlights -->
    <circle cx="15" cy="22" r="0.6" fill="white" opacity="0.7"/>
    <circle cx="29" cy="20" r="0.6" fill="white" opacity="0.7"/>
    <!-- @ symbol -->
    <circle cx="21" cy="20" r="1" fill="none" stroke="white" stroke-width="0.4" opacity="0.7"/>
    <path d="M20.5 19.5 L21.5 19.5 L21.5 20.5 L20.5 20.5 Z" fill="white" opacity="0.7"/>
  </g>
  
  <!-- Speed lines with rich details -->
  <g stroke="white" stroke-linecap="round">
    <line x1="10" y1="16" x2="14" y2="16" stroke-width="1.5" opacity="0.8"/>
    <line x1="10" y1="20" x2="13" y2="20" stroke-width="1.3" opacity="0.6"/>
    <line x1="10" y1="24" x2="12.5" y2="24" stroke-width="1.1" opacity="0.4"/>
    <!-- Speed line highlights -->
    <line x1="10.5" y1="16" x2="13" y2="16" stroke-width="0.8" opacity="0.9"/>
    <line x1="10.5" y1="20" x2="12.5" y2="20" stroke-width="0.6" opacity="0.7"/>
    <!-- Speed line dots -->
    <circle cx="11" cy="16" r="0.3" fill="white" opacity="0.8"/>
    <circle cx="11.5" cy="20" r="0.3" fill="white" opacity="0.6"/>
  </g>
  
  <!-- Rich four-pointed star -->
  <g fill="white" opacity="0.9">
    <path d="M12 10.5 L12.5 12 L13.5 12.5 L12.5 13 L12 14.5 L11.5 13 L10.5 12.5 L11.5 12 Z"/>
    <!-- Star center highlight -->
    <circle cx="12" cy="12.5" r="0.4" fill="white" opacity="0.7"/>
    <!-- Star sparkle effect -->
    <circle cx="12" cy="12.5" r="0.15" fill="white" opacity="1"/>
    <!-- Star rays -->
    <line x1="12" y1="9.5" x2="12" y2="10.5" stroke="white" stroke-width="0.4" opacity="0.6"/>
    <line x1="12" y1="14.5" x2="12" y2="15.5" stroke="white" stroke-width="0.4" opacity="0.6"/>
    <line x1="10.5" y1="12.5" x2="9.5" y2="12.5" stroke="white" stroke-width="0.4" opacity="0.6"/>
    <line x1="13.5" y1="12.5" x2="14.5" y2="12.5" stroke="white" stroke-width="0.4" opacity="0.6"/>
  </g>
  
  <!-- Subtle background elements -->
  <circle cx="20" cy="20" r="14" fill="none" stroke="white" stroke-width="0.5" opacity="0.1"/>
  <!-- Additional decorative elements -->
  <circle cx="20" cy="20" r="12" fill="none" stroke="white" stroke-width="0.3" opacity="0.05"/>
</svg>