<svg width="40" height="40" viewBox="0 0 40 40" fill="none" xmlns="http://www.w3.org/2000/svg">
  <defs>
    <linearGradient id="gradient" x1="0%" y1="0%" x2="100%" y2="100%">
      <stop offset="0%" stop-color="#6366F1" />
      <stop offset="100%" stop-color="#1E40AF" />
    </linearGradient>
    <filter id="glow">
      <feGaussianBlur stdDeviation="1.5" result="coloredBlur"/>
      <feMerge> 
        <feMergeNode in="coloredBlur"/>
        <feMergeNode in="SourceGraphic"/>
      </feMerge>
    </filter>
  </defs>
  <rect width="40" height="40" fill="url(#gradient)" rx="20"/>
  
  <!-- Circle border with enhanced shadow -->
  <circle cx="20" cy="20" r="17" fill="none" stroke="white" stroke-width="3" filter="url(#glow)"/>
  
  <!-- Paper airplane with enhanced details -->
  <g fill="white" stroke="white" stroke-width="1.5" stroke-linejoin="round">
    <!-- Main body -->
    <path d="M14.5 21.5 L24.5 13 L19 28 L14.5 21.5 Z"/>
    <!-- Wing -->
    <path d="M19 28 L24.5 13 L30.5 19 L19 28 Z"/>
    <!-- Nose detail -->
    <path d="M24.5 13 L26.5 15 L24.5 17 L22.5 15 Z"/>
    <!-- Wing tips -->
    <circle cx="19" cy="28" r="1" fill="white"/>
    <circle cx="30.5" cy="19" r="1" fill="white"/>
  </g>
  
  <!-- Speed lines with enhanced styling -->
  <g stroke="white" stroke-linecap="round">
    <line x1="9" y1="17" x2="13.5" y2="17" stroke-width="2.2" opacity="0.9"/>
    <line x1="9" y1="21" x2="12.5" y2="21" stroke-width="2" opacity="0.7"/>
    <line x1="9" y1="25" x2="12" y2="25" stroke-width="1.8" opacity="0.5"/>
  </g>
  
  <!-- Enhanced four-pointed star -->
  <g fill="white" opacity="0.95">
    <path d="M12 10.5 L12.5 12.5 L14.5 13 L12.5 13.5 L12 15.5 L11.5 13.5 L9.5 13 L11.5 12.5 Z"/>
    <!-- Star center dot -->
    <circle cx="12" cy="13" r="1"/>
    <!-- Star sparkle effect -->
    <circle cx="12" cy="13" r="0.5" fill="white" opacity="0.6"/>
  </g>
  
  <!-- Subtle inner glow effect -->
  <circle cx="20" cy="20" r="15" fill="none" stroke="white" stroke-width="0.8" opacity="0.2"/>
</svg>