<svg width="40" height="40" viewBox="0 0 40 40" fill="none" xmlns="http://www.w3.org/2000/svg">
  <defs>
    <linearGradient id="gradient" x1="0%" y1="0%" x2="100%" y2="0%">
      <stop offset="0%" stop-color="#2563EB" />
      <stop offset="100%" stop-color="#7C3AED" />
    </linearGradient>
  </defs>
  <rect width="40" height="40" fill="url(#gradient)" rx="8"/>
  <g fill="white">
    <path d="M12 20 L20 16 L16 24 L12 20 Z" fill="white"/>
    <path d="M16 24 L20 16 L24 22 L16 24 Z" fill="white"/>
    <line x1="20" y1="12" x2="20" y2="10" stroke="white" strokeWidth="2.5" opacity="0.8"/>
    <line x1="22" y1="13" x2="24" y2="11" stroke="white" strokeWidth="2.5" opacity="0.6"/>
    <line x1="24" y1="16" x2="27" y2="13" stroke="white" strokeWidth="2.5" opacity="0.4"/>
    <line x1="24" y1="20" x2="27" y2="23" stroke="white" strokeWidth="2.5" opacity="0.4"/>
    <line x1="22" y1="23" x2="24" y2="25" stroke="white" strokeWidth="2.5" opacity="0.6"/>
    <line x1="20" y1="24" x2="20" y2="26" stroke="white" strokeWidth="2.5" opacity="0.8"/>
    <line x1="18" y1="23" x2="16" y2="25" stroke="white" strokeWidth="2.5" opacity="0.6"/>
    <line x1="16" y1="20" x2="13" y2="23" stroke="white" strokeWidth="2.5" opacity="0.4"/>
    <line x1="16" y1="16" x2="13" y2="13" stroke="white" strokeWidth="2.5" opacity="0.4"/>
    <line x1="18" y1="13" x2="16" y2="11" stroke="white" strokeWidth="2.5" opacity="0.6"/>
  </g>
</svg>